<svg id="visual" viewBox="0 0 1440 2560" width="1440" height="2560" xmlns="http://www.w3.org/2000/svg" xmlns:xlink="http://www.w3.org/1999/xlink" version="1.1"><rect x="0" y="0" width="1440" height="2560" fill="#333333"></rect><path d="M0 481L60 466.3C120 451.7 240 422.3 360 431.3C480 440.3 600 487.7 720 525.8C840 564 960 593 1080 584.2C1200 575.3 1320 528.7 1380 505.3L1440 482L1440 0L1380 0C1320 0 1200 0 1080 0C960 0 840 0 720 0C600 0 480 0 360 0C240 0 120 0 60 0L0 0Z" fill="#69faf6"></path><path d="M0 492L60 479C120 466 240 440 360 417.3C480 394.7 600 375.3 720 389C840 402.7 960 449.3 1080 481.3C1200 513.3 1320 530.7 1380 539.3L1440 548L1440 0L1380 0C1320 0 1200 0 1080 0C960 0 840 0 720 0C600 0 480 0 360 0C240 0 120 0 60 0L0 0Z" fill="#2de6fd"></path><path d="M0 362L60 354.2C120 346.3 240 330.7 360 343.3C480 356 600 397 720 390.7C840 384.3 960 330.7 1080 331.5C1200 332.3 1320 387.7 1380 415.3L1440 443L1440 0L1380 0C1320 0 1200 0 1080 0C960 0 840 0 720 0C600 0 480 0 360 0C240 0 120 0 60 0L0 0Z" fill="#00d1ff"></path><path d="M0 266L60 258.2C120 250.3 240 234.7 360 247.5C480 260.3 600 301.7 720 313.8C840 326 960 309 1080 312C1200 315 1320 338 1380 349.5L1440 361L1440 0L1380 0C1320 0 1200 0 1080 0C960 0 840 0 720 0C600 0 480 0 360 0C240 0 120 0 60 0L0 0Z" fill="#00baff"></path><path d="M0 289L60 290C120 291 240 293 360 291C480 289 600 283 720 268C840 253 960 229 1080 231.3C1200 233.7 1320 262.3 1380 276.7L1440 291L1440 0L1380 0C1320 0 1200 0 1080 0C960 0 840 0 720 0C600 0 480 0 360 0C240 0 120 0 60 0L0 0Z" fill="#00a0ff"></path><path d="M0 164L60 155C120 146 240 128 360 126.7C480 125.3 600 140.7 720 152.5C840 164.3 960 172.7 1080 172.2C1200 171.7 1320 162.3 1380 157.7L1440 153L1440 0L1380 0C1320 0 1200 0 1080 0C960 0 840 0 720 0C600 0 480 0 360 0C240 0 120 0 60 0L0 0Z" fill="#0082ff"></path><path d="M0 104L60 102.3C120 100.7 240 97.3 360 89.7C480 82 600 70 720 77.2C840 84.3 960 110.7 1080 110.7C1200 110.7 1320 84.3 1380 71.2L1440 58L1440 0L1380 0C1320 0 1200 0 1080 0C960 0 840 0 720 0C600 0 480 0 360 0C240 0 120 0 60 0L0 0Z" fill="#005dff"></path></svg>